# xmcd CD database file
#
# Track frame offsets:
#	150
#	14202
#	28442
#	38605
#	48588
#	57901
#	68716
#	88003
#	102014
#	114013
#	126163
#	137394
#	154277
#	170012
#	186274
#	200614
#	217746
#	236100
#	248559
#	260924
#	288986
#
# Disc length: 3993 seconds
#
# Revision: 3
# Processed by: cddbd v1.5.2PL0 Copyright (c) Steve Scherf et al.
# Submitted via: CDex 1.70beta2
#
DISCID=330f9715
DTITLE=The Yardbirds - The Yardbirds Story [CD4]
DYEAR=2002
DGENRE=Blues
TTITLE0=Jeff's Blues [Take 1]■f
TTITLE1=Jeff's Blues [Take 2]■f
TTITLE2=Someone To Love, Part One [Take 2/ Instr.]■f
TTITLE3=Someone To Love, Part One [Take 4/Instr.]■f)
TTITLE4=Someone To Love, Part One [Take 14/Instr.]■f
TTITLE5=Someone To Love, Part One [Take 15/Vocal]■f
TTITLE6=Someone To Love, Part Two■f
TTITLE7=Like Jimmy Reed Again■f
TTITLE8=Chris' Number [Take 1]■f
TTITLE9=Pounds And Stomps (XYZ)■f
TTITLE10=Pounds And Stomps■f
TTITLE11=What Do You Want [Take 1]■f
TTITLE12=What Do You Want [Take 2]■f
TTITLE13=What Do You Want [Take 3]■f
TTITLE14=What Do You Want [Take 4]■f
TTITLE15=Here 'tis(Stereo Instrumental Version)
TTITLE16=Here 'Tis [Version For S.R.G.]■f
TTITLE17=Crimson Curtain [Edit Of Take One And Insert]■f
TTITLE18=Stroll On■f
TTITLE19=I'm A Man [Live In Germany, 1967]■f
TTITLE20=Shapes Of Things [Live In Germany, 1967]■f
EXTD=YEAR: 2002
EXTT0=
EXTT1=
EXTT2=
EXTT3=
EXTT4=
EXTT5=
EXTT6=
EXTT7=
EXTT8=
EXTT9=
EXTT10=
EXTT11=
EXTT12=
EXTT13=
EXTT14=
EXTT15=
EXTT16=
EXTT17=
EXTT18=
EXTT19=
EXTT20=
PLAYORDER=
